<svg width="221" height="221" viewBox="0 0 221 221" xmlns="http://www.w3.org/2000/svg">
    <path
        d="M0 0H186C205.33 0 221 15.67 221 35V186C221 205.33 205.33 221 186 221H35C15.67 221 0 205.33 0 186V0Z"
        fill="#fafafa" />
    <path
        d="M60 203.88C58.8954 203.88 58 202.985 58 201.88V124.12C58 123.015 58.8954 122.12 60 122.12H101.832C102.936 122.12 103.832 123.015 103.832 124.12V135.8C103.832 136.905 102.936 137.8 101.832 137.8H74.4321C73.3275 137.8 72.4321 138.695 72.4321 139.8V153.944C72.4321 155.049 73.3275 155.944 74.4321 155.944H99.2963C100.401 155.944 101.296 156.839 101.296 157.944V169.624C101.296 170.729 100.401 171.624 99.2963 171.624H74.6271C73.5226 171.624 72.6271 172.519 72.6271 173.624V201.88C72.6271 202.985 71.7317 203.88 70.6271 203.88H60Z"
        fill="#45199b" />
    <path
        d="M110.669 203.88C109.565 203.88 108.669 202.985 108.669 201.88V124.12C108.669 123.015 109.565 122.12 110.669 122.12H150.551C151.655 122.12 152.551 123.015 152.551 124.12V134.456C152.551 135.561 151.655 136.456 150.551 136.456H125.004C123.899 136.456 123.004 137.351 123.004 138.456V152.824C123.004 153.929 123.899 154.824 125.004 154.824H147.138C148.242 154.824 149.138 155.719 149.138 156.824V167.16C149.138 168.265 148.242 169.16 147.138 169.16H125.004C123.899 169.16 123.004 170.055 123.004 171.16V187.544C123.004 188.649 123.899 189.544 125.004 189.544H150.551C151.655 189.544 152.551 190.439 152.551 191.544V201.88C152.551 202.985 151.655 203.88 150.551 203.88H110.669Z"
        fill="#45199b" />
    <path
        d="M180.207 205C175.461 205 171.3 203.992 167.725 201.976C164.149 199.885 161.354 197.011 159.339 193.352C157.388 189.619 156.413 185.288 156.413 180.36V145.64C156.413 140.637 157.388 136.307 159.339 132.648C161.354 128.989 164.149 126.152 167.725 124.136C171.3 122.045 175.461 121 180.207 121C185.017 121 189.178 122.045 192.688 124.136C196.264 126.152 199.027 128.989 200.977 132.648C202.719 135.81 203.708 139.474 203.944 143.641C204.007 144.743 203.105 145.64 202 145.64H191.373C190.268 145.64 189.391 144.741 189.262 143.644C188.989 141.323 188.213 139.487 186.935 138.136C185.375 136.419 183.132 135.56 180.207 135.56C177.281 135.56 175.006 136.419 173.381 138.136C171.82 139.853 171.04 142.355 171.04 145.64V180.36C171.04 183.571 171.82 186.072 173.381 187.864C175.006 189.581 177.281 190.44 180.207 190.44C183.132 190.44 185.375 189.581 186.935 187.864C188.56 186.072 189.373 183.571 189.373 180.36V175.304C189.373 174.199 188.477 173.304 187.373 173.304H180.841C179.737 173.304 178.841 172.409 178.841 171.304V161.08C178.841 159.975 179.737 159.08 180.841 159.08H202C203.105 159.08 204 159.975 204 161.08V180.36C204 185.288 202.992 189.619 200.977 193.352C199.027 197.011 196.264 199.885 192.688 201.976C189.178 203.992 185.017 205 180.207 205Z"
        fill="#45199b" />
</svg>