<svg id="visual" viewBox="0 0 960 100" width="960" height="100" xmlns="http://www.w3.org/2000/svg" xmlns:xlink="http://www.w3.org/1999/xlink" version="1.1"><path d="M0 2L17.8 5.5C35.7 9 71.3 16 106.8 22.8C142.3 29.7 177.7 36.3 213.2 32.5C248.7 28.7 284.3 14.3 320 8.2C355.7 2 391.3 4 426.8 6.5C462.3 9 497.7 12 533.2 12.3C568.7 12.7 604.3 10.3 640 17.7C675.7 25 711.3 42 746.8 43C782.3 44 817.7 29 853.2 28.7C888.7 28.3 924.3 42.7 942.2 49.8L960 57L960 101L942.2 101C924.3 101 888.7 101 853.2 101C817.7 101 782.3 101 746.8 101C711.3 101 675.7 101 640 101C604.3 101 568.7 101 533.2 101C497.7 101 462.3 101 426.8 101C391.3 101 355.7 101 320 101C284.3 101 248.7 101 213.2 101C177.7 101 142.3 101 106.8 101C71.3 101 35.7 101 17.8 101L0 101Z" fill="#715df2"></path><path d="M0 32L17.8 31.7C35.7 31.3 71.3 30.7 106.8 35.2C142.3 39.7 177.7 49.3 213.2 51.3C248.7 53.3 284.3 47.7 320 49C355.7 50.3 391.3 58.7 426.8 56.8C462.3 55 497.7 43 533.2 38C568.7 33 604.3 35 640 36.3C675.7 37.7 711.3 38.3 746.8 43.7C782.3 49 817.7 59 853.2 59.5C888.7 60 924.3 51 942.2 46.5L960 42L960 101L942.2 101C924.3 101 888.7 101 853.2 101C817.7 101 782.3 101 746.8 101C711.3 101 675.7 101 640 101C604.3 101 568.7 101 533.2 101C497.7 101 462.3 101 426.8 101C391.3 101 355.7 101 320 101C284.3 101 248.7 101 213.2 101C177.7 101 142.3 101 106.8 101C71.3 101 35.7 101 17.8 101L0 101Z" fill="#674cdc"></path><path d="M0 49L17.8 48.3C35.7 47.7 71.3 46.3 106.8 48C142.3 49.7 177.7 54.3 213.2 55.2C248.7 56 284.3 53 320 49.8C355.7 46.7 391.3 43.3 426.8 45C462.3 46.7 497.7 53.3 533.2 56.2C568.7 59 604.3 58 640 56.8C675.7 55.7 711.3 54.3 746.8 50.3C782.3 46.3 817.7 39.7 853.2 38.8C888.7 38 924.3 43 942.2 45.5L960 48L960 101L942.2 101C924.3 101 888.7 101 853.2 101C817.7 101 782.3 101 746.8 101C711.3 101 675.7 101 640 101C604.3 101 568.7 101 533.2 101C497.7 101 462.3 101 426.8 101C391.3 101 355.7 101 320 101C284.3 101 248.7 101 213.2 101C177.7 101 142.3 101 106.8 101C71.3 101 35.7 101 17.8 101L0 101Z" fill="#5c3cc6"></path><path d="M0 63L17.8 62.7C35.7 62.3 71.3 61.7 106.8 60.5C142.3 59.3 177.7 57.7 213.2 59.7C248.7 61.7 284.3 67.3 320 71.5C355.7 75.7 391.3 78.3 426.8 77C462.3 75.7 497.7 70.3 533.2 65C568.7 59.7 604.3 54.3 640 56.7C675.7 59 711.3 69 746.8 69.3C782.3 69.7 817.7 60.3 853.2 62C888.7 63.7 924.3 76.3 942.2 82.7L960 89L960 101L942.2 101C924.3 101 888.7 101 853.2 101C817.7 101 782.3 101 746.8 101C711.3 101 675.7 101 640 101C604.3 101 568.7 101 533.2 101C497.7 101 462.3 101 426.8 101C391.3 101 355.7 101 320 101C284.3 101 248.7 101 213.2 101C177.7 101 142.3 101 106.8 101C71.3 101 35.7 101 17.8 101L0 101Z" fill="#512bb0"></path><path d="M0 85L17.8 86.7C35.7 88.3 71.3 91.7 106.8 89.3C142.3 87 177.7 79 213.2 76.8C248.7 74.7 284.3 78.3 320 81C355.7 83.7 391.3 85.3 426.8 88C462.3 90.7 497.7 94.3 533.2 92.3C568.7 90.3 604.3 82.7 640 82.5C675.7 82.3 711.3 89.7 746.8 92.8C782.3 96 817.7 95 853.2 94.5C888.7 94 924.3 94 942.2 94L960 94L960 101L942.2 101C924.3 101 888.7 101 853.2 101C817.7 101 782.3 101 746.8 101C711.3 101 675.7 101 640 101C604.3 101 568.7 101 533.2 101C497.7 101 462.3 101 426.8 101C391.3 101 355.7 101 320 101C284.3 101 248.7 101 213.2 101C177.7 101 142.3 101 106.8 101C71.3 101 35.7 101 17.8 101L0 101Z" fill="#45199b"></path></svg>