<svg id="visual" viewBox="0 0 960 100" width="960" height="100" xmlns="http://www.w3.org/2000/svg"
    xmlns:xlink="http://www.w3.org/1999/xlink" version="1.1">
    <path
        d="M0 62L17.8 66.3C35.7 70.7 71.3 79.3 106.8 78.7C142.3 78 177.7 68 213.2 68.5C248.7 69 284.3 80 320 82.8C355.7 85.7 391.3 80.3 426.8 74.8C462.3 69.3 497.7 63.7 533.2 63.3C568.7 63 604.3 68 640 67.3C675.7 66.7 711.3 60.3 746.8 63C782.3 65.7 817.7 77.3 853.2 74.8C888.7 72.3 924.3 55.7 942.2 47.3L960 39L960 0L942.2 0C924.3 0 888.7 0 853.2 0C817.7 0 782.3 0 746.8 0C711.3 0 675.7 0 640 0C604.3 0 568.7 0 533.2 0C497.7 0 462.3 0 426.8 0C391.3 0 355.7 0 320 0C284.3 0 248.7 0 213.2 0C177.7 0 142.3 0 106.8 0C71.3 0 35.7 0 17.8 0L0 0Z"
        fill="#715df2"></path>
    <path
        d="M0 41L17.8 39.3C35.7 37.7 71.3 34.3 106.8 34.3C142.3 34.3 177.7 37.7 213.2 39.3C248.7 41 284.3 41 320 39.7C355.7 38.3 391.3 35.7 426.8 39.3C462.3 43 497.7 53 533.2 54.7C568.7 56.3 604.3 49.7 640 50.5C675.7 51.3 711.3 59.7 746.8 62.2C782.3 64.7 817.7 61.3 853.2 58.8C888.7 56.3 924.3 54.7 942.2 53.8L960 53L960 0L942.2 0C924.3 0 888.7 0 853.2 0C817.7 0 782.3 0 746.8 0C711.3 0 675.7 0 640 0C604.3 0 568.7 0 533.2 0C497.7 0 462.3 0 426.8 0C391.3 0 355.7 0 320 0C284.3 0 248.7 0 213.2 0C177.7 0 142.3 0 106.8 0C71.3 0 35.7 0 17.8 0L0 0Z"
        fill="#674cdc"></path>
    <path
        d="M0 36L17.8 37.3C35.7 38.7 71.3 41.3 106.8 45.7C142.3 50 177.7 56 213.2 52.2C248.7 48.3 284.3 34.7 320 31.2C355.7 27.7 391.3 34.3 426.8 38.2C462.3 42 497.7 43 533.2 41.3C568.7 39.7 604.3 35.3 640 38.2C675.7 41 711.3 51 746.8 55.8C782.3 60.7 817.7 60.3 853.2 57.8C888.7 55.3 924.3 50.7 942.2 48.3L960 46L960 0L942.2 0C924.3 0 888.7 0 853.2 0C817.7 0 782.3 0 746.8 0C711.3 0 675.7 0 640 0C604.3 0 568.7 0 533.2 0C497.7 0 462.3 0 426.8 0C391.3 0 355.7 0 320 0C284.3 0 248.7 0 213.2 0C177.7 0 142.3 0 106.8 0C71.3 0 35.7 0 17.8 0L0 0Z"
        fill="#5c3cc6"></path>
    <path
        d="M0 46L17.8 45.5C35.7 45 71.3 44 106.8 43.3C142.3 42.7 177.7 42.3 213.2 37.3C248.7 32.3 284.3 22.7 320 22.5C355.7 22.3 391.3 31.7 426.8 36.7C462.3 41.7 497.7 42.3 533.2 42.7C568.7 43 604.3 43 640 41.7C675.7 40.3 711.3 37.7 746.8 35.3C782.3 33 817.7 31 853.2 32.7C888.7 34.3 924.3 39.7 942.2 42.3L960 45L960 0L942.2 0C924.3 0 888.7 0 853.2 0C817.7 0 782.3 0 746.8 0C711.3 0 675.7 0 640 0C604.3 0 568.7 0 533.2 0C497.7 0 462.3 0 426.8 0C391.3 0 355.7 0 320 0C284.3 0 248.7 0 213.2 0C177.7 0 142.3 0 106.8 0C71.3 0 35.7 0 17.8 0L0 0Z"
        fill="#512bb0"></path>
    <path
        d="M0 20L17.8 19.2C35.7 18.3 71.3 16.7 106.8 14C142.3 11.3 177.7 7.7 213.2 5.5C248.7 3.3 284.3 2.7 320 4.7C355.7 6.7 391.3 11.3 426.8 12.8C462.3 14.3 497.7 12.7 533.2 10C568.7 7.3 604.3 3.7 640 5.7C675.7 7.7 711.3 15.3 746.8 16.2C782.3 17 817.7 11 853.2 8.5C888.7 6 924.3 7 942.2 7.5L960 8L960 0L942.2 0C924.3 0 888.7 0 853.2 0C817.7 0 782.3 0 746.8 0C711.3 0 675.7 0 640 0C604.3 0 568.7 0 533.2 0C497.7 0 462.3 0 426.8 0C391.3 0 355.7 0 320 0C284.3 0 248.7 0 213.2 0C177.7 0 142.3 0 106.8 0C71.3 0 35.7 0 17.8 0L0 0Z"
        fill="#45199b"></path>
</svg>